<svg xmlns="http://www.w3.org/2000/svg" xmlns:xlink="http://www.w3.org/1999/xlink" width="541" zoomAndPan="magnify" viewBox="0 0 405.75 346.49999" height="462" preserveAspectRatio="xMidYMid meet" version="1.0"><defs><clipPath id="bf98c40a20"><path d="M 140.210938 104 L 265.355469 104 L 265.355469 242.5 L 140.210938 242.5 Z M 140.210938 104 " clip-rule="nonzero"/></clipPath><clipPath id="c2bcbd4544"><path d="M 140.210938 104 L 264 104 L 264 208 L 140.210938 208 Z M 140.210938 104 " clip-rule="nonzero"/></clipPath><clipPath id="dd86daface"><path d="M 201 137 L 265.355469 137 L 265.355469 208 L 201 208 Z M 201 137 " clip-rule="nonzero"/></clipPath></defs><g clip-path="url(#bf98c40a20)"><path fill="#00c853" d="M 199.1875 105.132812 C 201.414062 103.878906 204.152344 103.878906 206.375 105.132812 C 217.371094 111.316406 250.453125 129.9375 261.453125 136.125 C 263.675781 137.375 265.046875 139.6875 265.046875 142.1875 C 265.046875 154.5625 265.046875 191.800781 265.046875 204.171875 C 265.046875 206.675781 263.675781 208.988281 261.453125 210.238281 C 250.457031 216.425781 217.371094 235.046875 206.375 241.230469 C 204.148438 242.484375 201.410156 242.484375 199.1875 241.230469 C 188.195312 235.046875 155.109375 216.425781 144.113281 210.238281 C 141.890625 208.988281 140.519531 206.675781 140.519531 204.175781 C 140.519531 191.800781 140.519531 154.566406 140.519531 142.191406 C 140.519531 139.6875 141.890625 137.375 144.117188 136.125 C 155.105469 129.9375 188.199219 111.316406 199.1875 105.132812 Z M 199.1875 105.132812 " fill-opacity="1" fill-rule="nonzero"/></g><g clip-path="url(#c2bcbd4544)"><path fill="#69f0ae" d="M 141.515625 207.359375 C 140.644531 206.191406 140.519531 205.082031 140.519531 203.585938 C 140.519531 191.285156 140.519531 154.261719 140.519531 141.960938 C 140.519531 139.46875 141.886719 137.167969 144.105469 135.925781 C 155.0625 129.777344 188.035156 111.265625 198.988281 105.113281 C 201.207031 103.867188 204.210938 103.894531 206.429688 105.140625 C 217.386719 111.289062 250.246094 129.644531 261.203125 135.792969 C 262.085938 136.292969 262.761719 136.894531 263.367188 137.683594 Z M 141.515625 207.359375 " fill-opacity="1" fill-rule="nonzero"/></g><path fill="#ffffff" d="M 202.785156 127.1875 C 177.453125 127.1875 156.90625 147.789062 156.90625 173.183594 C 156.90625 198.578125 177.453125 219.175781 202.785156 219.175781 C 228.113281 219.175781 248.660156 198.578125 248.660156 173.183594 C 248.660156 147.789062 228.113281 127.1875 202.785156 127.1875 Z M 202.785156 196.179688 C 190.132812 196.179688 179.84375 185.863281 179.84375 173.183594 C 179.84375 160.5 190.132812 150.183594 202.785156 150.183594 C 215.433594 150.183594 225.722656 160.5 225.722656 173.183594 C 225.722656 185.863281 215.433594 196.179688 202.785156 196.179688 Z M 202.785156 196.179688 " fill-opacity="1" fill-rule="nonzero"/><g clip-path="url(#dd86daface)"><path fill="#00e676" d="M 263.359375 137.71875 C 265.050781 139.304688 265.015625 141.695312 265.015625 143.578125 C 265.015625 156.046875 264.910156 191.507812 265.046875 203.972656 C 265.058594 205.273438 264.628906 206.644531 263.988281 207.675781 L 201.449219 173.183594 Z M 263.359375 137.71875 " fill-opacity="1" fill-rule="nonzero"/></g><path fill="#ffffff" d="M 235.554688 160.039062 L 238.832031 160.039062 L 238.832031 186.324219 L 235.554688 186.324219 Z M 245.382812 160.039062 L 248.660156 160.039062 L 248.660156 186.324219 L 245.382812 186.324219 Z M 245.382812 160.039062 " fill-opacity="1" fill-rule="nonzero"/><path fill="#ffffff" d="M 229 176.46875 L 255.214844 176.46875 L 255.214844 179.753906 L 229 179.753906 Z M 229 166.613281 L 255.214844 166.613281 L 255.214844 169.898438 L 229 169.898438 Z M 229 166.613281 " fill-opacity="1" fill-rule="nonzero"/></svg>