<svg xmlns="http://www.w3.org/2000/svg" xmlns:xlink="http://www.w3.org/1999/xlink" width="541" zoomAndPan="magnify" viewBox="0 0 405.75 346.49999" height="462" preserveAspectRatio="xMidYMid meet" version="1.0"><defs><clipPath id="e5c711adce"><path d="M 153.777344 117 L 251.945312 117 L 251.945312 229.242188 L 153.777344 229.242188 Z M 153.777344 117 " clip-rule="nonzero"/></clipPath><clipPath id="a15e7720a8"><path d="M 176 90.605469 L 192 90.605469 L 192 110 L 176 110 Z M 176 90.605469 " clip-rule="nonzero"/></clipPath><clipPath id="c4f90dd8ae"><path d="M 194 90.605469 L 210 90.605469 L 210 110 L 194 110 Z M 194 90.605469 " clip-rule="nonzero"/></clipPath><clipPath id="6281935c15"><path d="M 212 90.605469 L 228 90.605469 L 228 110 L 212 110 Z M 212 90.605469 " clip-rule="nonzero"/></clipPath></defs><g clip-path="url(#e5c711adce)"><path fill="#264de4" d="M 202.816406 229.238281 L 162.761719 218.101562 L 153.835938 117.851562 L 251.917969 117.847656 L 242.984375 218.085938 L 202.820312 229.234375 Z M 202.816406 229.238281 " fill-opacity="1" fill-rule="nonzero"/></g><path fill="#2965f1" d="M 235.335938 211.703125 L 242.972656 126.046875 L 202.878906 126.046875 L 202.878906 220.710938 Z M 235.335938 211.703125 " fill-opacity="1" fill-rule="nonzero"/><path fill="#ebebeb" d="M 174.300781 163.230469 L 175.402344 175.523438 L 202.878906 175.523438 L 202.878906 163.230469 Z M 174.300781 163.230469 " fill-opacity="1" fill-rule="nonzero"/><path fill="#ebebeb" d="M 172.089844 138.339844 L 173.207031 150.636719 L 202.878906 150.636719 L 202.878906 138.339844 Z M 172.089844 138.339844 " fill-opacity="1" fill-rule="nonzero"/><path fill="#ebebeb" d="M 202.878906 195.160156 L 202.824219 195.175781 L 189.148438 191.476562 L 188.277344 181.671875 L 175.949219 181.671875 L 177.667969 200.976562 L 202.820312 207.96875 L 202.878906 207.953125 Z M 202.878906 195.160156 " fill-opacity="1" fill-rule="nonzero"/><g clip-path="url(#a15e7720a8)"><path fill="#000000" d="M 176.921875 90.605469 L 191.792969 90.605469 L 191.792969 96.832031 L 183.140625 96.832031 L 183.140625 103.058594 L 191.792969 103.058594 L 191.792969 109.289062 L 176.921875 109.289062 Z M 176.921875 90.605469 " fill-opacity="1" fill-rule="nonzero"/></g><g clip-path="url(#c4f90dd8ae)"><path fill="#000000" d="M 194.765625 90.605469 L 209.636719 90.605469 L 209.636719 96.019531 L 200.988281 96.019531 L 200.988281 97.101562 L 209.636719 97.101562 L 209.636719 109.558594 L 194.765625 109.558594 L 194.765625 103.871094 L 203.421875 103.871094 L 203.421875 102.789062 L 194.765625 102.789062 Z M 194.765625 90.605469 " fill-opacity="1" fill-rule="nonzero"/></g><g clip-path="url(#6281935c15)"><path fill="#000000" d="M 212.613281 90.605469 L 227.484375 90.605469 L 227.484375 96.019531 L 218.832031 96.019531 L 218.832031 97.101562 L 227.484375 97.101562 L 227.484375 109.558594 L 212.613281 109.558594 L 212.613281 103.871094 L 221.265625 103.871094 L 221.265625 102.789062 L 212.613281 102.789062 Z M 212.613281 90.605469 " fill-opacity="1" fill-rule="nonzero"/></g><path fill="#ffffff" d="M 231.378906 163.230469 L 233.59375 138.339844 L 202.835938 138.339844 L 202.835938 150.636719 L 220.136719 150.636719 L 219.023438 163.230469 L 202.835938 163.230469 L 202.835938 175.523438 L 217.957031 175.523438 L 216.53125 191.46875 L 202.835938 195.171875 L 202.835938 207.960938 L 228.007812 200.976562 L 228.191406 198.898438 L 231.082031 166.527344 Z M 231.378906 163.230469 " fill-opacity="1" fill-rule="nonzero"/></svg>