<svg xmlns="http://www.w3.org/2000/svg" xmlns:xlink="http://www.w3.org/1999/xlink" width="541" zoomAndPan="magnify" viewBox="0 0 405.75 346.49999" height="462" preserveAspectRatio="xMidYMid meet" version="1.0"><defs><clipPath id="53f3123c30"><path d="M 133.632812 103.863281 L 272.269531 103.863281 L 272.269531 242.5 L 133.632812 242.5 Z M 133.632812 103.863281 " clip-rule="nonzero"/></clipPath></defs><g clip-path="url(#53f3123c30)"><path fill="#f03c2e" d="M 269.652344 167.007812 L 209.125 106.480469 C 208.710938 106.066406 208.257812 105.695312 207.769531 105.371094 C 207.285156 105.042969 206.769531 104.769531 206.226562 104.546875 C 205.6875 104.320312 205.128906 104.152344 204.554688 104.035156 C 203.976562 103.921875 203.398438 103.867188 202.8125 103.867188 C 202.226562 103.867188 201.644531 103.921875 201.070312 104.035156 C 200.496094 104.152344 199.9375 104.320312 199.394531 104.546875 C 198.851562 104.769531 198.339844 105.042969 197.851562 105.371094 C 197.363281 105.695312 196.914062 106.066406 196.5 106.480469 L 183.933594 119.042969 L 199.878906 134.988281 C 203.585938 133.6875 207.832031 134.578125 210.789062 137.53125 C 211.492188 138.234375 212.082031 139.023438 212.5625 139.894531 C 213.046875 140.765625 213.398438 141.6875 213.621094 142.65625 C 213.84375 143.625 213.925781 144.609375 213.875 145.601562 C 213.820312 146.597656 213.628906 147.5625 213.304688 148.503906 L 228.671875 163.871094 C 232.386719 162.589844 236.675781 163.417969 239.644531 166.394531 C 240.136719 166.886719 240.578125 167.421875 240.96875 168.003906 C 241.355469 168.582031 241.683594 169.195312 241.949219 169.839844 C 242.21875 170.484375 242.417969 171.148438 242.554688 171.835938 C 242.691406 172.519531 242.757812 173.210938 242.757812 173.90625 C 242.761719 174.605469 242.691406 175.296875 242.554688 175.980469 C 242.417969 176.667969 242.21875 177.332031 241.949219 177.976562 C 241.683594 178.621094 241.355469 179.234375 240.96875 179.8125 C 240.582031 180.394531 240.140625 180.929688 239.648438 181.421875 C 239.152344 181.917969 238.617188 182.359375 238.035156 182.746094 C 237.457031 183.132812 236.84375 183.460938 236.199219 183.726562 C 235.554688 183.992188 234.886719 184.195312 234.203125 184.332031 C 233.519531 184.46875 232.828125 184.535156 232.128906 184.535156 C 231.433594 184.535156 230.742188 184.464844 230.054688 184.328125 C 229.371094 184.191406 228.707031 183.992188 228.0625 183.722656 C 227.417969 183.457031 226.804688 183.128906 226.226562 182.742188 C 225.644531 182.351562 225.109375 181.910156 224.617188 181.417969 C 221.496094 178.296875 220.726562 173.707031 222.300781 169.863281 L 207.972656 155.53125 L 207.972656 193.246094 C 209.019531 193.761719 209.957031 194.433594 210.789062 195.253906 C 211.28125 195.75 211.722656 196.285156 212.109375 196.863281 C 212.496094 197.445312 212.824219 198.058594 213.089844 198.703125 C 213.355469 199.347656 213.558594 200.011719 213.695312 200.695312 C 213.832031 201.378906 213.898438 202.070312 213.898438 202.769531 C 213.898438 203.464844 213.832031 204.15625 213.695312 204.839844 C 213.558594 205.523438 213.355469 206.1875 213.089844 206.832031 C 212.824219 207.476562 212.496094 208.089844 212.109375 208.671875 C 211.722656 209.25 211.28125 209.785156 210.789062 210.28125 C 210.292969 210.773438 209.757812 211.214844 209.175781 211.601562 C 208.597656 211.988281 207.984375 212.316406 207.339844 212.582031 C 206.695312 212.851562 206.03125 213.050781 205.347656 213.1875 C 204.664062 213.324219 203.972656 213.390625 203.273438 213.390625 C 202.578125 213.390625 201.886719 213.324219 201.203125 213.1875 C 200.519531 213.050781 199.855469 212.851562 199.210938 212.582031 C 198.566406 212.316406 197.953125 211.988281 197.371094 211.601562 C 196.792969 211.214844 196.253906 210.773438 195.761719 210.28125 C 195.269531 209.785156 194.828125 209.25 194.441406 208.671875 C 194.050781 208.089844 193.722656 207.480469 193.457031 206.835938 C 193.1875 206.191406 192.988281 205.523438 192.851562 204.839844 C 192.714844 204.15625 192.648438 203.464844 192.648438 202.769531 C 192.648438 202.070312 192.714844 201.378906 192.851562 200.695312 C 192.988281 200.011719 193.1875 199.347656 193.457031 198.703125 C 193.722656 198.058594 194.050781 197.445312 194.441406 196.863281 C 194.828125 196.285156 195.269531 195.75 195.761719 195.253906 C 196.789062 194.234375 197.929688 193.457031 199.242188 192.9375 L 199.242188 154.875 C 197.976562 154.351562 196.789062 153.585938 195.761719 152.554688 C 195.015625 151.8125 194.394531 150.972656 193.898438 150.042969 C 193.402344 149.113281 193.054688 148.132812 192.847656 147.097656 C 192.644531 146.0625 192.597656 145.019531 192.703125 143.972656 C 192.808594 142.921875 193.066406 141.914062 193.476562 140.941406 L 177.75 125.222656 L 136.246094 166.683594 C 135.828125 167.097656 135.460938 167.546875 135.132812 168.035156 C 134.808594 168.523438 134.53125 169.039062 134.308594 169.578125 C 134.082031 170.121094 133.914062 170.679688 133.796875 171.253906 C 133.683594 171.832031 133.625 172.410156 133.625 172.996094 C 133.625 173.585938 133.683594 174.164062 133.796875 174.738281 C 133.914062 175.316406 134.082031 175.875 134.308594 176.414062 C 134.53125 176.957031 134.808594 177.472656 135.132812 177.960938 C 135.460938 178.445312 135.828125 178.898438 136.246094 179.3125 L 196.777344 239.835938 C 197.191406 240.25 197.640625 240.621094 198.128906 240.945312 C 198.617188 241.273438 199.128906 241.546875 199.671875 241.769531 C 200.214844 241.996094 200.773438 242.164062 201.347656 242.277344 C 201.921875 242.394531 202.503906 242.449219 203.089844 242.449219 C 203.675781 242.449219 204.253906 242.394531 204.832031 242.277344 C 205.40625 242.164062 205.964844 241.996094 206.503906 241.769531 C 207.046875 241.546875 207.5625 241.273438 208.046875 240.945312 C 208.535156 240.621094 208.988281 240.25 209.402344 239.835938 L 269.652344 179.679688 C 270.066406 179.265625 270.4375 178.816406 270.761719 178.328125 C 271.089844 177.839844 271.363281 177.324219 271.589844 176.785156 C 271.8125 176.242188 271.980469 175.683594 272.097656 175.109375 C 272.210938 174.535156 272.269531 173.953125 272.269531 173.367188 C 272.269531 172.78125 272.210938 172.199219 272.097656 171.625 C 271.980469 171.046875 271.8125 170.488281 271.589844 169.949219 C 271.363281 169.40625 271.089844 168.890625 270.761719 168.40625 C 270.4375 167.917969 270.066406 167.464844 269.652344 167.050781 " fill-opacity="1" fill-rule="nonzero"/></g></svg>