<svg xmlns="http://www.w3.org/2000/svg" xmlns:xlink="http://www.w3.org/1999/xlink" width="541" zoomAndPan="magnify" viewBox="0 0 405.75 346.49999" height="462" preserveAspectRatio="xMidYMid meet" version="1.0"><defs><clipPath id="f2f03019be"><path d="M 153.777344 117 L 251.945312 117 L 251.945312 229.277344 L 153.777344 229.277344 Z M 153.777344 117 " clip-rule="nonzero"/></clipPath><clipPath id="4ab5fac47c"><path d="M 162 90.640625 L 182 90.640625 L 182 110 L 162 110 Z M 162 90.640625 " clip-rule="nonzero"/></clipPath><clipPath id="d199739cdf"><path d="M 183 90.640625 L 202 90.640625 L 202 110 L 183 110 Z M 183 90.640625 " clip-rule="nonzero"/></clipPath><clipPath id="3f6852bdbb"><path d="M 203 90.640625 L 225 90.640625 L 225 110 L 203 110 Z M 203 90.640625 " clip-rule="nonzero"/></clipPath><clipPath id="f8a20a4c35"><path d="M 227 90.640625 L 243 90.640625 L 243 110 L 227 110 Z M 227 90.640625 " clip-rule="nonzero"/></clipPath></defs><g clip-path="url(#f2f03019be)"><path fill="#e44d26" d="M 251.917969 117.886719 L 242.984375 218.121094 L 202.816406 229.273438 L 162.761719 218.136719 L 153.835938 117.886719 L 251.921875 117.886719 Z M 251.917969 117.886719 " fill-opacity="1" fill-rule="nonzero"/></g><path fill="#f16529" d="M 202.878906 220.75 L 235.335938 211.742188 L 242.972656 126.085938 L 202.878906 126.082031 Z M 202.878906 220.75 " fill-opacity="1" fill-rule="nonzero"/><path fill="#ebebeb" d="M 185.507812 150.675781 L 202.878906 150.675781 L 202.878906 138.378906 L 172.089844 138.378906 L 172.382812 141.675781 L 175.402344 175.558594 L 202.878906 175.558594 L 202.878906 163.265625 L 186.628906 163.265625 Z M 185.507812 150.675781 " fill-opacity="1" fill-rule="nonzero"/><path fill="#ebebeb" d="M 188.277344 181.707031 L 175.949219 181.707031 L 177.667969 201.015625 L 202.820312 208.007812 L 202.878906 207.992188 L 202.878906 195.199219 L 202.824219 195.214844 L 189.148438 191.515625 Z M 188.277344 181.707031 " fill-opacity="1" fill-rule="nonzero"/><g clip-path="url(#4ab5fac47c)"><path fill="#000000" d="M 162.964844 90.640625 L 169.203125 90.640625 L 169.203125 96.816406 L 174.910156 96.816406 L 174.910156 90.640625 L 181.152344 90.640625 L 181.152344 109.335938 L 174.910156 109.335938 L 174.910156 103.078125 L 169.203125 103.078125 L 169.203125 109.335938 L 162.964844 109.335938 Z M 162.964844 90.640625 " fill-opacity="1" fill-rule="nonzero"/></g><g clip-path="url(#d199739cdf)"><path fill="#000000" d="M 189.359375 96.839844 L 183.863281 96.839844 L 183.863281 90.640625 L 201.09375 90.640625 L 201.09375 96.839844 L 195.597656 96.839844 L 195.597656 109.335938 L 189.359375 109.335938 Z M 189.359375 96.839844 " fill-opacity="1" fill-rule="nonzero"/></g><g clip-path="url(#3f6852bdbb)"><path fill="#000000" d="M 203.828125 90.640625 L 210.335938 90.640625 L 214.335938 97.210938 L 218.335938 90.640625 L 224.84375 90.640625 L 224.84375 109.335938 L 218.632812 109.335938 L 218.632812 100.070312 L 214.335938 106.71875 L 214.230469 106.71875 L 209.933594 100.070312 L 209.933594 109.335938 L 203.828125 109.335938 Z M 203.828125 90.640625 " fill-opacity="1" fill-rule="nonzero"/></g><g clip-path="url(#f8a20a4c35)"><path fill="#000000" d="M 227.949219 90.640625 L 234.191406 90.640625 L 234.191406 103.15625 L 242.96875 103.15625 L 242.96875 109.335938 L 227.949219 109.335938 Z M 227.949219 90.640625 " fill-opacity="1" fill-rule="nonzero"/></g><path fill="#ffffff" d="M 202.835938 175.558594 L 217.957031 175.558594 L 216.53125 191.507812 L 202.835938 195.210938 L 202.835938 208 L 228.007812 201.015625 L 228.191406 198.9375 L 231.082031 166.566406 L 231.378906 163.265625 L 202.835938 163.265625 Z M 202.835938 175.558594 " fill-opacity="1" fill-rule="nonzero"/><path fill="#ffffff" d="M 202.835938 150.644531 L 202.835938 150.675781 L 232.496094 150.675781 L 232.742188 147.910156 L 233.304688 141.675781 L 233.59375 138.378906 L 202.835938 138.378906 Z M 202.835938 150.644531 " fill-opacity="1" fill-rule="nonzero"/></svg>