<svg xmlns="http://www.w3.org/2000/svg" xmlns:xlink="http://www.w3.org/1999/xlink" width="541" zoomAndPan="magnify" viewBox="0 0 405.75 346.49999" height="462" preserveAspectRatio="xMidYMid meet" version="1.0"><defs><clipPath id="d8dfd4116d"><path d="M 133.632812 103.863281 L 272.269531 103.863281 L 272.269531 242.5 L 133.632812 242.5 Z M 133.632812 103.863281 " clip-rule="nonzero"/></clipPath></defs><g clip-path="url(#d8dfd4116d)"><path fill="#f7df1e" d="M 133.632812 103.863281 L 272.269531 103.863281 L 272.269531 242.5 L 133.632812 242.5 Z M 133.632812 103.863281 " fill-opacity="1" fill-rule="nonzero"/></g><path fill="#000000" d="M 170.085938 219.71875 L 180.695312 213.300781 C 182.742188 216.929688 184.601562 220 189.070312 220 C 193.347656 220 196.050781 218.320312 196.050781 211.808594 L 196.050781 167.511719 L 209.074219 167.511719 L 209.074219 211.996094 C 209.074219 225.484375 201.167969 231.628906 189.628906 231.628906 C 179.203125 231.628906 173.15625 226.230469 170.085938 219.714844 " fill-opacity="1" fill-rule="nonzero"/><path fill="#000000" d="M 216.152344 218.320312 L 226.761719 212.179688 C 229.554688 216.738281 233.183594 220.089844 239.601562 220.089844 C 245 220.089844 248.445312 217.394531 248.445312 213.667969 C 248.445312 209.199219 244.910156 207.617188 238.953125 205.015625 L 235.695312 203.617188 C 226.296875 199.613281 220.0625 194.59375 220.0625 183.980469 C 220.0625 174.210938 227.503906 166.765625 239.140625 166.765625 C 247.421875 166.765625 253.378906 169.652344 257.65625 177.1875 L 247.511719 183.703125 C 245.28125 179.703125 242.863281 178.121094 239.140625 178.121094 C 235.324219 178.121094 232.902344 180.542969 232.902344 183.703125 C 232.902344 187.613281 235.324219 189.195312 240.90625 191.617188 L 244.160156 193.007812 C 255.234375 197.757812 261.476562 202.59375 261.476562 213.484375 C 261.476562 225.207031 252.261719 231.628906 239.882812 231.628906 C 227.785156 231.628906 219.96875 225.859375 216.152344 218.320312 " fill-opacity="1" fill-rule="nonzero"/></svg>