<svg xmlns="http://www.w3.org/2000/svg" xmlns:xlink="http://www.w3.org/1999/xlink" width="541" zoomAndPan="magnify" viewBox="0 0 405.75 346.49999" height="462" preserveAspectRatio="xMidYMid meet" version="1.0"><defs><clipPath id="042e15ab96"><path d="M 166 103.863281 L 237 103.863281 L 237 242.5 L 166 242.5 Z M 166 103.863281 " clip-rule="nonzero"/></clipPath></defs><path fill="#4e7896" d="M 190.792969 177.386719 C 190.792969 177.386719 187.128906 179.609375 193.339844 180.242188 C 200.824219 181.195312 204.808594 181.039062 213.089844 179.449219 C 213.089844 179.449219 215.316406 180.878906 218.34375 181.988281 C 199.710938 189.929688 176.140625 181.511719 190.792969 177.386719 Z M 188.40625 167.0625 C 188.40625 167.0625 184.421875 170.082031 190.632812 170.714844 C 198.757812 171.511719 205.125 171.667969 216.113281 169.445312 C 216.113281 169.445312 217.546875 171.035156 219.9375 171.828125 C 197.480469 178.496094 172.320312 172.460938 188.402344 167.0625 Z M 232.359375 185.164062 C 232.359375 185.164062 235.066406 187.386719 229.332031 189.132812 C 218.664062 192.308594 184.585938 193.261719 175.027344 189.132812 C 171.683594 187.707031 178.054688 185.640625 180.125 185.324219 C 182.195312 184.847656 183.308594 184.847656 183.308594 184.847656 C 179.644531 182.304688 158.945312 190.085938 172.796875 192.308594 C 210.859375 198.503906 242.230469 189.609375 232.359375 185.164062 Z M 192.546875 156.265625 C 192.546875 156.265625 175.1875 160.394531 186.335938 161.820312 C 191.113281 162.457031 200.507812 162.296875 209.265625 161.664062 C 216.433594 161.027344 223.601562 159.757812 223.601562 159.757812 C 223.601562 159.757812 221.050781 160.867188 219.300781 161.980469 C 201.625 166.585938 167.703125 164.519531 177.417969 159.757812 C 185.699219 155.789062 192.546875 156.265625 192.546875 156.265625 Z M 223.597656 173.574219 C 241.433594 164.363281 233.152344 155.46875 227.421875 156.582031 C 225.988281 156.898438 225.351562 157.21875 225.351562 157.21875 C 225.351562 157.21875 225.828125 156.265625 226.941406 155.945312 C 238.25 151.976562 247.167969 167.855469 223.28125 174.046875 C 223.28125 174.046875 223.441406 173.890625 223.597656 173.570312 Z M 194.296875 198.660156 C 211.496094 199.773438 237.769531 198.027344 238.410156 189.925781 C 238.410156 189.925781 237.136719 193.105469 224.238281 195.484375 C 209.585938 198.183594 191.433594 197.867188 180.765625 196.121094 C 180.765625 196.121094 182.996094 198.027344 194.300781 198.660156 Z M 194.296875 198.660156 " fill-opacity="1" fill-rule="nonzero"/><g clip-path="url(#042e15ab96)"><path fill="#f58219" d="M 212.769531 103.863281 C 212.769531 103.863281 222.640625 113.867188 203.375 128.953125 C 187.925781 141.179688 199.871094 148.167969 203.375 156.105469 C 194.296875 148.007812 187.765625 140.863281 192.226562 134.191406 C 198.757812 124.347656 216.753906 119.585938 212.769531 103.863281 Z M 207.675781 149.4375 C 212.292969 154.679688 206.402344 159.441406 206.402344 159.441406 C 206.402344 159.441406 218.1875 153.40625 212.773438 145.945312 C 207.835938 138.800781 204.011719 135.304688 224.714844 123.398438 C 224.714844 123.398438 192.070312 131.496094 207.675781 149.441406 Z M 195.890625 234.707031 L 195.890625 219.144531 C 195.890625 215.175781 193.660156 212.472656 188.085938 212.472656 C 184.902344 212.472656 182.195312 213.269531 179.804688 214.21875 L 180.601562 217.078125 C 182.351562 216.441406 184.582031 215.804688 186.972656 215.804688 C 189.996094 215.804688 191.429688 217.078125 191.429688 219.617188 L 191.429688 221.679688 L 189.839844 221.679688 C 182.195312 221.679688 178.691406 224.539062 178.691406 229.144531 C 178.691406 232.957031 181.078125 235.179688 185.378906 235.179688 C 188.085938 235.179688 190.15625 233.90625 192.070312 232.320312 L 192.386719 234.703125 L 195.890625 234.703125 Z M 191.429688 229.625 C 189.839844 231.054688 188.085938 231.847656 186.492188 231.847656 C 184.421875 231.847656 183.148438 230.578125 183.148438 228.355469 C 183.148438 226.128906 184.425781 224.542969 189.519531 224.542969 L 191.429688 224.542969 Z M 210.859375 234.707031 L 205.285156 234.707031 L 198.597656 212.949219 L 203.375 212.949219 L 207.515625 226.289062 L 208.472656 230.257812 C 210.542969 224.542969 212.132812 218.667969 212.769531 212.949219 L 217.546875 212.949219 C 216.273438 220.097656 214.042969 227.878906 210.859375 234.707031 Z M 236.65625 234.707031 L 236.65625 219.144531 C 236.65625 215.175781 234.425781 212.472656 228.855469 212.472656 C 225.667969 212.472656 222.960938 213.269531 220.574219 214.21875 L 221.210938 217.078125 C 223.121094 216.441406 225.351562 215.804688 227.738281 215.804688 C 230.765625 215.804688 232.199219 217.078125 232.199219 219.617188 L 232.199219 221.679688 L 230.605469 221.679688 C 222.960938 221.679688 219.457031 224.539062 219.457031 229.144531 C 219.457031 232.957031 221.6875 235.179688 225.988281 235.179688 C 228.855469 235.179688 230.925781 233.90625 232.835938 232.320312 L 233.152344 234.703125 L 236.65625 234.703125 Z M 232.199219 229.625 C 230.605469 231.054688 228.855469 231.847656 227.261719 231.847656 C 225.191406 231.847656 223.917969 230.578125 223.917969 228.355469 C 223.917969 226.128906 225.191406 224.542969 230.289062 224.542969 L 232.199219 224.542969 Z M 173.753906 238.359375 C 172.480469 240.261719 170.570312 241.691406 168.183594 242.484375 L 166.109375 239.945312 C 167.703125 238.996094 169.296875 237.566406 169.933594 236.292969 C 170.570312 235.183594 170.730469 233.59375 170.730469 229.941406 L 170.730469 205.171875 L 175.507812 205.171875 L 175.507812 229.625 C 175.507812 234.546875 175.027344 236.453125 173.757812 238.359375 Z M 173.753906 238.359375 " fill-opacity="1" fill-rule="nonzero"/></g></svg>