<svg xmlns="http://www.w3.org/2000/svg" xmlns:xlink="http://www.w3.org/1999/xlink" width="541" zoomAndPan="magnify" viewBox="0 0 405.75 346.49999" height="462" preserveAspectRatio="xMidYMid meet" version="1.0"><defs><clipPath id="25ca7f2672"><path d="M 115.023438 159 L 188 159 L 188 194.460938 L 115.023438 194.460938 Z M 115.023438 159 " clip-rule="nonzero"/></clipPath></defs><g clip-path="url(#25ca7f2672)"><path fill="#00618a" d="M 115.671875 186.433594 L 121.429688 186.433594 L 121.429688 163.601562 L 130.34375 183.511719 C 131.398438 185.914062 132.835938 186.773438 135.660156 186.773438 C 138.484375 186.773438 139.867188 185.921875 140.921875 183.511719 L 149.839844 163.601562 L 149.839844 186.441406 L 155.597656 186.441406 L 155.597656 163.640625 C 155.597656 161.414062 154.710938 160.339844 152.882812 159.785156 C 148.507812 158.410156 145.574219 159.597656 144.246094 162.5625 L 135.496094 182.214844 L 127.023438 162.554688 C 125.75 159.589844 122.757812 158.402344 118.382812 159.773438 C 116.554688 160.332031 115.671875 161.40625 115.671875 163.628906 Z M 160.386719 167.84375 L 166.144531 167.84375 L 166.144531 180.425781 C 166.089844 181.109375 166.359375 182.714844 169.515625 182.765625 C 171.125 182.789062 181.9375 182.765625 182.039062 182.765625 L 182.039062 167.78125 L 187.808594 167.78125 C 187.835938 167.78125 187.804688 188.210938 187.804688 188.300781 C 187.835938 193.335938 181.578125 194.433594 178.695312 194.515625 L 160.511719 194.515625 L 160.511719 190.625 L 178.726562 190.625 C 182.433594 190.230469 181.996094 188.382812 181.996094 187.757812 L 181.996094 186.242188 L 169.757812 186.242188 C 164.0625 186.1875 160.4375 183.691406 160.390625 180.820312 C 160.386719 180.5625 160.511719 167.964844 160.386719 167.84375 Z M 160.386719 167.84375 " fill-opacity="1" fill-rule="nonzero"/></g><path fill="#e48e00" d="M 192.25 186.433594 L 208.804688 186.433594 C 210.742188 186.433594 212.628906 186.027344 214.125 185.320312 C 216.617188 184.171875 217.835938 182.613281 217.835938 180.574219 L 217.835938 176.347656 C 217.835938 174.679688 216.449219 173.121094 213.738281 172.085938 C 212.296875 171.527344 210.527344 171.230469 208.808594 171.230469 L 201.832031 171.230469 C 199.507812 171.230469 198.398438 170.527344 198.121094 168.96875 C 198.066406 168.785156 198.066406 168.628906 198.066406 168.449219 L 198.066406 165.820312 C 198.066406 165.671875 198.066406 165.523438 198.121094 165.335938 C 198.398438 164.148438 199.007812 163.816406 201.054688 163.621094 C 201.222656 163.621094 201.445312 163.585938 201.609375 163.585938 L 218.058594 163.585938 L 218.058594 159.730469 L 201.886719 159.730469 C 199.5625 159.730469 198.34375 159.878906 197.234375 160.210938 C 193.796875 161.285156 192.300781 163 192.300781 165.96875 L 192.300781 169.339844 C 192.300781 171.9375 195.238281 174.160156 200.164062 174.679688 C 200.71875 174.71875 201.273438 174.753906 201.824219 174.753906 L 207.808594 174.753906 C 208.027344 174.753906 208.25 174.753906 208.417969 174.792969 C 210.242188 174.941406 211.019531 175.273438 211.574219 175.941406 C 211.914062 176.28125 212.015625 176.609375 212.015625 176.96875 L 212.015625 180.34375 C 212.015625 180.75 211.738281 181.269531 211.1875 181.714844 C 210.6875 182.160156 209.855469 182.457031 208.75 182.53125 C 208.527344 182.53125 208.363281 182.566406 208.140625 182.566406 L 192.246094 182.566406 L 192.246094 186.421875 Z M 253.761719 179.722656 C 253.761719 183.691406 256.695312 185.914062 262.621094 186.359375 C 263.171875 186.402344 263.726562 186.425781 264.28125 186.433594 L 279.289062 186.433594 L 279.289062 182.578125 L 264.171875 182.578125 C 260.792969 182.578125 259.519531 181.722656 259.519531 179.683594 L 259.519531 159.738281 L 253.757812 159.738281 L 253.757812 179.71875 Z M 221.507812 179.921875 L 221.507812 166.175781 C 221.507812 162.683594 223.949219 160.566406 228.777344 159.898438 C 229.292969 159.824219 229.8125 159.785156 230.332031 159.785156 L 241.261719 159.785156 C 241.800781 159.785156 242.339844 159.824219 242.871094 159.898438 C 247.699219 160.566406 250.140625 162.683594 250.140625 166.175781 L 250.140625 179.921875 C 250.140625 182.757812 249.105469 184.273438 246.714844 185.261719 L 252.386719 190.402344 L 245.699219 190.402344 L 241.109375 186.242188 L 236.492188 186.539062 L 230.332031 186.539062 C 229.277344 186.539062 228.167969 186.386719 226.945312 186.054688 C 223.277344 185.050781 221.507812 183.117188 221.507812 179.921875 Z M 227.726562 179.578125 C 227.726562 179.765625 227.78125 179.953125 227.835938 180.175781 C 228.175781 181.773438 229.667969 182.664062 231.933594 182.664062 L 237.164062 182.664062 L 232.359375 178.308594 L 239.046875 178.308594 L 243.230469 182.105469 C 244 181.695312 244.507812 181.0625 244.679688 180.25 C 244.734375 180.0625 244.734375 179.878906 244.734375 179.691406 L 244.734375 166.511719 C 244.734375 166.363281 244.734375 166.167969 244.679688 165.992188 C 244.339844 164.507812 242.847656 163.652344 240.628906 163.652344 L 231.949219 163.652344 C 229.386719 163.652344 227.730469 164.765625 227.730469 166.511719 L 227.730469 179.589844 Z M 227.726562 179.578125 " fill-opacity="1" fill-rule="nonzero"/><path fill="#00618a" d="M 284.351562 153.339844 C 280.8125 153.246094 278.105469 153.574219 275.796875 154.554688 C 275.136719 154.832031 274.089844 154.839844 273.984375 155.667969 C 274.34375 156.046875 274.402344 156.613281 274.6875 157.082031 C 275.238281 157.976562 276.171875 159.179688 277.003906 159.808594 C 277.910156 160.5 278.847656 161.234375 279.824219 161.832031 C 281.554688 162.894531 283.488281 163.5 285.15625 164.5625 C 286.140625 165.1875 287.117188 165.976562 288.078125 166.683594 C 288.550781 167.035156 288.871094 167.578125 289.484375 167.796875 L 289.484375 167.695312 C 289.160156 167.28125 289.078125 166.710938 288.78125 166.28125 L 287.472656 164.96875 C 286.191406 163.253906 284.570312 161.761719 282.84375 160.519531 C 281.464844 159.523438 278.382812 158.183594 277.808594 156.574219 L 277.707031 156.472656 C 278.683594 156.363281 279.828125 156.007812 280.730469 155.765625 C 282.242188 155.359375 283.597656 155.464844 285.160156 155.058594 L 287.273438 154.453125 L 287.273438 154.046875 C 286.484375 153.234375 285.921875 152.15625 285.058594 151.417969 C 282.804688 149.492188 280.34375 147.566406 277.8125 145.957031 C 276.40625 145.066406 274.671875 144.488281 273.179688 143.734375 C 272.679688 143.480469 271.800781 143.347656 271.46875 142.925781 C 270.6875 141.925781 270.261719 140.652344 269.660156 139.496094 C 268.394531 137.054688 267.15625 134.382812 266.035156 131.8125 C 265.269531 130.058594 264.769531 128.332031 263.820312 126.757812 C 259.25 119.210938 254.328125 114.65625 246.707031 110.179688 C 245.085938 109.226562 243.132812 108.851562 241.070312 108.359375 L 237.75 108.15625 C 237.070312 107.875 236.367188 107.042969 235.734375 106.640625 C 233.207031 105.035156 226.734375 101.554688 224.863281 106.125 C 223.683594 109.015625 226.628906 111.835938 227.679688 113.304688 C 228.421875 114.332031 229.367188 115.484375 229.894531 116.640625 C 230.242188 117.398438 230.304688 118.160156 230.601562 118.964844 C 231.332031 120.9375 231.96875 123.101562 232.914062 124.929688 C 233.394531 125.855469 233.921875 126.832031 234.527344 127.660156 C 234.898438 128.167969 235.53125 128.390625 235.632812 129.175781 C 235.011719 130.050781 234.976562 131.40625 234.625 132.511719 C 233.050781 137.496094 233.644531 143.6875 235.933594 147.375 C 236.636719 148.507812 238.289062 150.933594 240.566406 150.003906 C 242.554688 149.1875 242.101562 146.667969 242.679688 144.441406 C 242.808594 143.9375 242.730469 143.570312 242.980469 143.230469 L 242.980469 143.332031 L 244.792969 146.96875 C 246.132812 149.140625 248.515625 151.40625 250.53125 152.9375 C 251.578125 153.730469 252.410156 155.101562 253.753906 155.566406 L 253.753906 155.464844 L 253.652344 155.464844 C 253.390625 155.050781 252.980469 154.882812 252.644531 154.554688 C 251.855469 153.777344 250.980469 152.816406 250.328125 151.925781 C 248.492188 149.425781 246.875 146.6875 245.398438 143.839844 C 244.691406 142.476562 244.078125 140.976562 243.484375 139.59375 C 243.257812 139.058594 243.257812 138.253906 242.78125 137.976562 C 242.128906 138.992188 241.171875 139.808594 240.667969 141.007812 C 239.859375 142.921875 239.757812 145.257812 239.457031 147.679688 C 239.28125 147.746094 239.359375 147.699219 239.257812 147.78125 C 237.855469 147.441406 237.363281 145.992188 236.839844 144.75 C 235.523438 141.601562 235.28125 136.539062 236.4375 132.921875 C 236.738281 131.984375 238.09375 129.035156 237.546875 128.167969 C 237.285156 127.304688 236.417969 126.796875 235.933594 126.148438 C 235.335938 125.332031 234.738281 124.257812 234.324219 123.316406 C 233.246094 120.863281 232.742188 118.113281 231.605469 115.632812 C 231.0625 114.449219 230.148438 113.25 229.394531 112.203125 C 228.558594 111.039062 227.625 110.175781 226.976562 108.773438 C 226.746094 108.273438 226.433594 107.472656 226.777344 106.953125 C 226.847656 106.625 227.050781 106.421875 227.378906 106.347656 C 227.964844 105.894531 229.589844 106.5 230.199219 106.753906 C 231.8125 107.425781 233.160156 108.066406 234.527344 108.976562 C 235.183594 109.40625 235.847656 110.257812 236.640625 110.496094 L 237.546875 110.496094 C 238.960938 110.820312 240.550781 110.597656 241.875 111 C 244.214844 111.714844 246.308594 112.828125 248.214844 114.03125 C 254.019531 117.710938 258.761719 122.949219 262.007812 129.207031 C 262.527344 130.210938 262.753906 131.171875 263.214844 132.238281 C 264.140625 134.382812 265.3125 136.605469 266.234375 138.707031 C 267.15625 140.808594 268.050781 142.925781 269.355469 144.671875 C 270.039062 145.589844 272.683594 146.082031 273.882812 146.59375 C 274.726562 146.949219 276.105469 147.324219 276.90625 147.804688 C 278.429688 148.730469 279.90625 149.828125 281.335938 150.839844 C 282.050781 151.347656 284.246094 152.453125 284.355469 153.367188 Z M 284.351562 153.339844 " fill-opacity="1" fill-rule="nonzero"/><path fill="#00618a" d="M 239.359375 114.824219 C 238.621094 114.808594 238.101562 114.902344 237.546875 115.027344 L 237.546875 115.128906 L 237.648438 115.128906 C 238 115.855469 238.621094 116.320312 239.058594 116.945312 L 240.066406 119.070312 L 240.164062 118.96875 C 240.789062 118.527344 241.074219 117.820312 241.070312 116.742188 C 240.820312 116.480469 240.785156 116.148438 240.566406 115.832031 C 240.277344 115.414062 239.714844 115.175781 239.359375 114.820312 Z M 239.359375 114.824219 " fill-opacity="1" fill-rule="evenodd"/><path fill="#e48e00" d="M 281.996094 182.46875 C 281.996094 185.011719 284 186.730469 286.238281 186.730469 C 288.480469 186.730469 290.484375 185.011719 290.484375 182.46875 C 290.484375 179.921875 288.480469 178.203125 286.238281 178.203125 C 284 178.203125 281.996094 179.921875 281.996094 182.46875 Z M 289.53125 182.46875 C 289.53125 184.398438 288.0625 185.84375 286.238281 185.84375 C 284.394531 185.84375 282.945312 184.398438 282.945312 182.46875 C 282.945312 180.535156 284.394531 179.089844 286.238281 179.089844 C 288.0625 179.089844 289.53125 180.535156 289.53125 182.46875 Z M 287.382812 184.898438 L 288.332031 184.898438 L 286.941406 182.765625 C 287.6875 182.683594 288.253906 182.320312 288.253906 181.433594 C 288.253906 180.445312 287.628906 180.035156 286.429688 180.035156 L 284.539062 180.035156 L 284.539062 184.902344 L 285.355469 184.902344 L 285.355469 182.796875 L 286.113281 182.796875 L 287.382812 184.902344 Z M 285.355469 182.113281 L 285.355469 180.714844 L 286.292969 180.714844 C 286.78125 180.714844 287.371094 180.808594 287.371094 181.375 C 287.371094 182.058594 286.839844 182.117188 286.226562 182.117188 L 285.355469 182.117188 Z M 285.355469 182.113281 " fill-opacity="1" fill-rule="evenodd"/></svg>